<svg xmlns="http://www.w3.org/2000/svg"><path id="logomark" d="M17.7 2.7C11.8 4.9 6.5 9.1 4.3 13.3c-1.3 2.5-1.7 6-1.7 16.9-.1 9.2.505 12.807.505 14.164-4.045 0-2.952 2.81-1.505 9.136C3.2 63 4.568 64.3 6.485 64.3c.239.688.515 2.3 1.215 6.1.8 4.5 2.2 8.1 4.7 12C22.8 98 35 101.2 46 91.3c7.4-6.7 10.9-12.3 12.2-19.6.8-4.1 1.9-6.9 3.4-8.2 1.5-1.4 2.5-4 3.3-9.2 1.4-9.4 1.4-10.3-.5-10.3-1.4 0-1.5-.6-.8-4.3 1-5.2 1.1-13.4.1-20.9-.9-6.4-4.599-11.647-12-15C42.33-.445 25 .1 17.7 2.7zm33.16 5.058C58.245 11.182 59.9 13.6 60.6 25.6c.4 5.6.4 11.4 0 13l-.8 2.9-1.4-2.5c-.9-1.6-1.766-5.214-1.2-10.3 1.828-16.42-14.317-10.296-24.011-10.67-9.694-.375-18.789-2.997-22.289 1.87-1.81 2.517-1.9 3.5-1.4 8.6.4 4.1.1 7.3-.9 10-2.4 6.7-3.9-1.7-2.7-14.9.8-8.3 1.1-9 4.3-12.3 5.4-5.4 12.3-7.4 24.4-7.1 8.9.3 10.851 1.05 16.26 3.558zM27.5 21.1c3 .9 6 .8 12.3-.2 5.6-.8 9.2-.9 11-.3 2.6.9 2.7 1.2 2.8 9.4 0 4.7.6 9.5 1.2 10.7 2.5 4.6 1.8 5.1-8 5.7-12.7.9-18.341.26-26.716-.32-8.375-.58-8.628 1.362-9.884-.58-.267-.414.366-2.414 1.9-6 1.3-4.4 1.7-7.5 1.2-11.4-.5-4.5-.3-5.6 1.2-6.7 2.3-1.7 7.6-1.8 13-.3zM5.1 49.7c0 1 .4 3.9.8 6.5.4 2.7.5 4.8.1 4.8s-1.1-2.1-1.4-4.8c-.4-2.6-.9-5.5-1.2-6.5-.3-.9-.1-1.7.5-1.7s1.1.8 1.2 1.7zm57.4 4c-.4 3.2-1.1 6.2-1.7 6.8-.7.7-.8 0-.4-2 .3-1.7.8-4.7 1.2-6.8 1-5.8 1.7-4.3.9 2zm-34.7-3.8c1.1.6 1.1 1.7.2 4.9-1.2 4.8-3.1 5.7-10 4.4-4.548-.769-6.823-2.936-6.823-6.503 0-3.074 2.841-4.307 8.523-3.697 3.7 0 7.4.4 8.1.9zm26 2.3c.5 4.6-1.2 6.5-6.8 7.3-6 .8-7.7-.2-8.6-5.2-.9-4.6.4-5.4 8.6-5.1 6.2.3 6.5.4 6.8 3zm-18.8.1c.754 3.84 2.2 8.5 4.6 9.6 5.2 2.3 16.4-.8 16.4-4.6 0-.9.2-1.4.5-1.1 1.1 1-1.4 17.8-3.1 21-2.1 4.2-8.7 11.7-12.2 14-3.3 2.2-11.2 2.4-15.2.3-3.6-1.9-11.5-11.1-13.5-15.8-.8-2-1.8-6.8-2.1-10.8l-.7-7.2c.536.946 1.078 1.612 1.625 1.997C12.817 60.748 15.7 61.9 19.5 62.4c7 .8 10-.7 11-5.6.4-1.8.539-3.503.956-4.878.578-1.904 3.091-1.928 3.544.378zm22.7-.1c-.3.8-.6.5-.6-.6-.1-1.1.2-1.7.5-1.3.3.3.4 1.2.1 1.9z" fill-rule="nonzero" fill="#000"/></svg>
